<?xml version="1.0" encoding="UTF-8"?>
<svg id="logo" xmlns="http://www.w3.org/2000/svg" viewBox="0 0 638.03 213.19">
  <path id="pieceFour" d="M88.98,165.92c-.72,.13-1.45,.38-2.18,.78-2.29,1.24-4.47,2.42-6.67,3.16-3.31,1.13-6.72,1.3-10.38-.69-7.46-4.05-10.22-14.08-5.92-21.39,5.3-9.01,14.94-7.9,22.74-3.04,3.37,2.1,7.61,.14,8.45-3.48v-33.92h0v-.94h-.15v.76H60.5c-2.64-.7-4.35-3.24-4.14-5.88,0-.94,.22-1.91,.74-2.82,2.01-3.52,3.85-7.01,4.03-10.68,.02-1.9-.42-3.84-1.52-5.87-4.05-7.46-14.08-10.22-21.39-5.93-4.63,2.72-6.59,6.59-6.74,10.77-.02,3.82,1.43,7.87,3.71,11.51,.7,1.13,.95,2.36,.83,3.53-.05,2.46-1.74,4.74-4.25,5.36H1.89c-.1,.15-.2,.3-.3,.45-2.58,4.22-2.05,7.35,1.8,10,2.47,1.7,5.07,3.16,7.23,5.36,3.3,3.37,3.51,5.35,.99,9.51-2.83,4.69-2.82,4.88,1.54,8.21,1.17,.89,2.41,1.57,.76,3.26-2.41,2.49-1.55,4.92,.53,6.73,2.92,2.54,3.36,5.81,2.81,9.46-.48,3.18-1.18,6.33-1.78,9.49-1.61,8.54,.63,12.5,8.34,14.74,8.05,2.34,16.06,.31,24.09-.46,5.38-.52,10.68-2.39,16.18-1.03,3.57,.88,5.55,3.07,6.01,7.07,.67,5.84,2.41,11.42,3.4,17.16,.81,4.68,2.85,6.15,7.07,5.96,3.54-.16,8.59-.23,14.46-.26v-42.61c-.65-2.77-3.3-4.58-6.04-4.29Z" style="fill: #f7bd48;"/>
  <path id="pieceThree" d="M95.04,43.9c.84,3.62,5.09,5.58,8.45,3.48,7.8-4.86,17.44-5.97,22.74,3.04,4.3,7.31,1.54,17.34-5.92,21.39-3.66,1.99-7.06,1.82-10.38,.69-2.2-.73-4.38-1.92-6.67-3.16-.73-.4-1.47-.65-2.18-.78-2.74-.29-5.4,1.52-6.05,4.29v20.17h0v13.43h0v.94h34.95c3.13,1.13,4.77,4.93,2.96,8.08-3.13,5.48-5.86,10.88-2.54,17.01,4.05,7.46,14.08,10.22,21.39,5.93,9.02-5.3,7.91-14.94,3.05-22.74-1.98-3.18-.33-7.15,2.91-8.28h21.27c2.83-7.17,4.48-14.5,4.93-21.62,.72-18.45-2.86-33.7-11.3-46.18C155.35,14.01,131.11,2.36,102.93,.19c-2.65-.2-5.28-.24-7.9-.13V43.9Z" style="fill: #f7bd48;"/>
  <path id="pieceTwo" d="M158.82,213.1c5.04-.27,2.59-3.42,.27-8.3-18.84-39.61,3.6-71.54,7.28-76.01,5.51-6.7,9.73-13.99,12.67-21.45h-21.27c-3.24,1.13-4.89,5.1-2.91,8.28,4.86,7.8,5.96,17.44-3.05,22.74-7.31,4.3-17.34,1.53-21.39-5.93-3.33-6.13-.6-11.53,2.54-17.01,1.8-3.16,.17-6.95-2.96-8.08h-34.8v32.62c0,.45-.06,.88-.16,1.3v.14c-.88,3.56-5.09,5.48-8.43,3.4-7.8-4.86-17.44-5.96-22.74,3.05-4.3,7.31-1.12,17.17,6.34,21.22,3.61,1.96,6.79,1.84,9.93,.79,2.23-.76,4.43-1.95,6.64-3.21,.72-.41,1.47-.64,2.21-.72,2.87-.51,5.4,1.08,6.05,4.19v.1c.1,.42,.16,.85,.16,1.31v41.3c22.71-.08,57.44,.61,63.63,.27Z" style="fill: #2b4772;"/>
  <path id="pieceOne" d="M126.23,50.36c-5.3-9.01-14.94-7.9-22.74-3.04-3.37,2.1-7.61,.14-8.45-3.48-.1-.41-.16-.84-.16-1.3V0c-11.62,.52-22.92,4.02-33.77,9.34-2.92,1.43-5.78,2.99-8.63,4.6-19.94,11.29-31.04,28.64-30.1,54.04,.53,14.26-5.82,24.64-15.2,33.36-1.7,1.58-3.38,3.15-4.77,5.04-.18,.25-.36,.51-.53,.77H31.78c2.51-.62,4.2-2.9,4.25-5.36,.02-1.03-.24-2.09-.85-3.07-2.36-3.79-3.83-8.02-3.69-11.97,.15-4.18,2.11-8.05,6.74-10.77,7.31-4.3,17.34-1.53,21.39,5.93,1.1,2.03,1.53,3.97,1.52,5.87-.04,3.84-1.95,7.47-4.05,11.14-.44,.76-.66,1.56-.72,2.35-.21,2.64,1.5,5.18,4.14,5.88h34.38v-33.05c0-.46,.06-.89,.16-1.31,.65-2.77,3.31-4.58,6.05-4.29,.74,.08,1.5,.31,2.21,.72,2.21,1.26,4.4,2.45,6.64,3.21,3.31,1.13,6.72,1.3,10.38-.69,7.46-4.05,10.22-14.08,5.92-21.39Z" style="fill: #2b4772;"/>
  <g id="mind">
    <g>
      <path d="M298.6,212.2l-.12-63.28-31.47,52.73h-5.72l-31.47-52.36v62.9h-11.94V125.35h10.2l36.32,61.04,35.82-61.04h10.2l.12,86.85h-11.94Z" style="fill: #f7bd48;"/>
      <path d="M336.66,125.35h12.44v86.85h-12.44V125.35Z" style="fill: #f7bd48;"/>
      <path d="M450.09,125.35v86.85h-10.2l-52.24-64.76v64.76h-12.44V125.35h10.2l52.24,64.76V125.35h12.44Z" style="fill: #f7bd48;"/>
      <path d="M476.21,125.35h36.69c9.2,0,17.37,1.82,24.5,5.46,7.13,3.64,12.67,8.75,16.61,15.32,3.94,6.58,5.91,14.12,5.91,22.64s-1.97,16.07-5.91,22.64c-3.94,6.58-9.47,11.68-16.61,15.32-7.13,3.64-15.3,5.46-24.5,5.46h-36.69V125.35Zm35.95,76.05c7.05,0,13.25-1.37,18.59-4.09s9.47-6.55,12.38-11.48c2.9-4.92,4.35-10.61,4.35-17.06s-1.45-12.14-4.35-17.06c-2.9-4.92-7.03-8.75-12.38-11.48s-11.55-4.09-18.59-4.09h-23.51v65.26h23.51Z" style="fill: #f7bd48;"/>
      <path d="M585.36,210.15c-6.09-2.03-10.88-4.65-14.37-7.88l4.6-9.68c3.32,2.98,7.57,5.4,12.75,7.26,5.18,1.86,10.51,2.79,15.98,2.79,7.21,0,12.6-1.22,16.17-3.66,3.56-2.44,5.35-5.69,5.35-9.74,0-2.98-.98-5.4-2.92-7.26-1.95-1.86-4.35-3.29-7.21-4.28-2.86-.99-6.9-2.11-12.13-3.35-6.55-1.57-11.84-3.14-15.86-4.71-4.02-1.57-7.46-3.99-10.32-7.26-2.86-3.27-4.29-7.67-4.29-13.21,0-4.63,1.22-8.81,3.67-12.53,2.44-3.72,6.16-6.7,11.13-8.93,4.98-2.23,11.15-3.35,18.53-3.35,5.14,0,10.2,.66,15.17,1.98,4.97,1.32,9.25,3.23,12.81,5.71l-4.1,9.93c-3.65-2.31-7.55-4.07-11.69-5.27-4.15-1.2-8.21-1.8-12.19-1.8-7.05,0-12.33,1.28-15.86,3.85-3.53,2.56-5.29,5.87-5.29,9.92,0,2.98,1,5.4,2.99,7.26,1.99,1.86,4.46,3.31,7.4,4.34,2.94,1.04,6.94,2.13,12,3.29,6.55,1.57,11.82,3.14,15.8,4.71,3.98,1.57,7.4,3.97,10.26,7.2,2.86,3.23,4.29,7.57,4.29,13.03,0,4.55-1.24,8.71-3.73,12.47-2.49,3.76-6.26,6.74-11.32,8.93-5.06,2.19-11.28,3.29-18.66,3.29-6.55,0-12.87-1.01-18.97-3.04Z" style="fill: #f7bd48;"/>
    </g>
  </g>
  <g id="four">
    <path d="M238.02,34.44v22.95h40.3v16.13h-40.3v31.64h-20.15V18.31h65.8v16.13h-45.65Z" style="fill: #2b4772;"/>
    <path d="M314.21,100.81c-7.26-3.89-12.94-9.24-17.04-16.07s-6.16-14.49-6.16-23.01,2.05-16.19,6.16-23.01,9.78-12.18,17.04-16.07c7.26-3.89,15.4-5.83,24.44-5.83s17.17,1.94,24.38,5.83c7.21,3.89,12.89,9.24,17.04,16.07,4.15,6.82,6.22,14.5,6.22,23.01s-2.07,16.19-6.22,23.01c-4.15,6.82-9.83,12.18-17.04,16.07-7.21,3.89-15.34,5.83-24.38,5.83s-17.19-1.94-24.44-5.83Zm38.37-14.83c4.15-2.36,7.4-5.65,9.76-9.86,2.36-4.22,3.54-9.01,3.54-14.39s-1.18-10.17-3.54-14.39c-2.36-4.22-5.62-7.51-9.76-9.86-4.15-2.36-8.79-3.54-13.93-3.54s-9.79,1.18-13.93,3.54c-4.15,2.36-7.4,5.65-9.76,9.86-2.36,4.22-3.54,9.02-3.54,14.39s1.18,10.17,3.54,14.39c2.36,4.22,5.62,7.51,9.76,9.86,4.15,2.36,8.79,3.54,13.93,3.54s9.78-1.18,13.93-3.54Z" style="fill: #2b4772;"/>
    <path d="M411.1,96.35c-6.92-6.86-10.39-16.67-10.39-29.4V18.31h20.15v47.89c0,15.55,6.47,23.32,19.4,23.32,6.3,0,11.11-1.88,14.43-5.65,3.32-3.76,4.97-9.66,4.97-17.68V18.31h19.9v48.63c0,12.74-3.46,22.54-10.39,29.4-6.92,6.87-16.61,10.3-29.04,10.3s-22.12-3.43-29.04-10.3Z" style="fill: #2b4772;"/>
    <path d="M554.95,105.16l-16.79-24.19h-18.53v24.19h-20.15V18.31h37.69c7.71,0,14.41,1.28,20.09,3.85,5.68,2.56,10.05,6.2,13.12,10.92,3.07,4.71,4.6,10.3,4.6,16.75s-1.55,12.02-4.66,16.69c-3.11,4.67-7.53,8.25-13.25,10.73l19.53,27.92h-21.64Zm-5.1-66.56c-3.15-2.61-7.75-3.91-13.81-3.91h-16.42v30.27h16.42c6.05,0,10.65-1.32,13.81-3.97,3.15-2.65,4.73-6.37,4.73-11.17s-1.58-8.62-4.73-11.23Z" style="fill: #2b4772;"/>
  </g>
</svg>